<!DOCTYPE svg PUBLIC "-//W3C//DTD SVG 1.1//EN" "http://www.w3.org/Graphics/SVG/1.1/DTD/svg11.dtd">
<!-- Uploaded to: SVG Repo, www.svgrepo.com, Transformed by: SVG Repo Mixer Tools -->
<svg width="800px" height="800px" viewBox="0 0 20.829 20.829" xmlns="http://www.w3.org/2000/svg" fill="#000000">
<g id="SVGRepo_bgCarrier" stroke-width="0"/>
<g id="SVGRepo_tracerCarrier" stroke-linecap="round" stroke-linejoin="round"/>
<g id="SVGRepo_iconCarrier"> <g id="winter" transform="translate(-1.586 -1.586)"> <circle id="secondary" fill="#ffffff" cx="3" cy="3" r="3" transform="translate(9 9)"/> <path id="primary" d="M12,9V5M9.88,9.88,7.05,7.05m2,5H5m4.88,2.12L7.05,17M12,19V15m5,2-2.83-2.83M19,12H15m2-4.95L14.12,9.88M12,9a3,3,0,1,0,3,3A3,3,0,0,0,12,9Z" fill="none" stroke="#000000" stroke-linecap="round" stroke-linejoin="round" stroke-width="1.04145"/> <path id="primary-2" data-name="primary" d="M14,3,12,5,10,3" fill="none" stroke="#000000" stroke-linecap="round" stroke-linejoin="round" stroke-width="1.04145"/> <path id="primary-3" data-name="primary" d="M4.22,7.05H7.05V4.22" fill="none" stroke="#000000" stroke-linecap="round" stroke-linejoin="round" stroke-width="1.04145"/> <path id="primary-4" data-name="primary" d="M3,14l2-2L3,10" fill="none" stroke="#000000" stroke-linecap="round" stroke-linejoin="round" stroke-width="1.04145"/> <path id="primary-5" data-name="primary" d="M7.05,19.78V16.95H4.22" fill="none" stroke="#000000" stroke-linecap="round" stroke-linejoin="round" stroke-width="1.04145"/> <path id="primary-6" data-name="primary" d="M14,21l-2-2-2,2" fill="none" stroke="#000000" stroke-linecap="round" stroke-linejoin="round" stroke-width="1.04145"/> <path id="primary-7" data-name="primary" d="M19.78,16.95H16.95v2.83" fill="none" stroke="#000000" stroke-linecap="round" stroke-linejoin="round" stroke-width="1.04145"/> <path id="primary-8" data-name="primary" d="M21,10l-2,2,2,2" fill="none" stroke="#000000" stroke-linecap="round" stroke-linejoin="round" stroke-width="1.04145"/> <path id="primary-9" data-name="primary" d="M16.95,4.22V7.05h2.83" fill="none" stroke="#000000" stroke-linecap="round" stroke-linejoin="round" stroke-width="1.04145"/> </g> </g>
</svg>