<!DOCTYPE svg PUBLIC "-//W3C//DTD SVG 1.1//EN" "http://www.w3.org/Graphics/SVG/1.1/DTD/svg11.dtd">
<!-- Uploaded to: SVG Repo, www.svgrepo.com, Transformed by: SVG Repo Mixer Tools -->
<svg width="800px" height="800px" viewBox="0 -1.04 20.077 20.077" xmlns="http://www.w3.org/2000/svg" fill="#000000">
<g id="SVGRepo_bgCarrier" stroke-width="0"/>
<g id="SVGRepo_tracerCarrier" stroke-linecap="round" stroke-linejoin="round"/>
<g id="SVGRepo_iconCarrier"> <g id="sun-cloudy" transform="translate(-1.926 -2)"> <path id="secondary" fill="#ffffff" d="M17.67,11.8a2.76,2.76,0,0,0-.77.11A4.1,4.1,0,0,0,13.5,10a4.27,4.27,0,0,0-4.1,3.79,2.27,2.27,0,0,0-.9-.19A2.61,2.61,0,0,0,6,16.3,2.61,2.61,0,0,0,8.5,19h9.17A3.47,3.47,0,0,0,21,15.4a3.47,3.47,0,0,0-3.33-3.6Z"/> <path id="primary" d="M7.75,13.72a3,3,0,1,1,4.18-3.38" fill="none" stroke="#000000" stroke-linecap="round" stroke-linejoin="round" stroke-width="1.0038500000000001"/> <path id="primary-2" data-name="primary" d="M9,4V3M4.05,6.05l-.71-.71M14,6.05l.71-.71m3,6.46a2.76,2.76,0,0,0-.77.11A4.1,4.1,0,0,0,13.5,10a4.27,4.27,0,0,0-4.1,3.79,2.27,2.27,0,0,0-.9-.19A2.61,2.61,0,0,0,6,16.3,2.61,2.61,0,0,0,8.5,19h9.17A3.47,3.47,0,0,0,21,15.4a3.47,3.47,0,0,0-3.33-3.6Z" fill="none" stroke="#000000" stroke-linecap="round" stroke-linejoin="round" stroke-width="1.0038500000000001"/> </g> </g>
</svg>