<!DOCTYPE svg PUBLIC "-//W3C//DTD SVG 1.1//EN" "http://www.w3.org/Graphics/SVG/1.1/DTD/svg11.dtd">
<!-- Uploaded to: SVG Repo, www.svgrepo.com, Transformed by: SVG Repo Mixer Tools -->
<svg width="800px" height="800px" viewBox="0 -1 20.003 20.003" xmlns="http://www.w3.org/2000/svg" fill="#000000">
<g id="SVGRepo_bgCarrier" stroke-width="0"/>
<g id="SVGRepo_tracerCarrier" stroke-linecap="round" stroke-linejoin="round"/>
<g id="SVGRepo_iconCarrier"> <g id="moon-cloudy" transform="translate(-2 -2)"> <path id="secondary" fill="#fcfcfc" d="M17.67,11.8a2.76,2.76,0,0,0-.77.11A4.1,4.1,0,0,0,13.5,10a4.27,4.27,0,0,0-4.1,3.79,2.27,2.27,0,0,0-.9-.19A2.61,2.61,0,0,0,6,16.3,2.61,2.61,0,0,0,8.5,19h9.17A3.47,3.47,0,0,0,21,15.4a3.47,3.47,0,0,0-3.33-3.6Z"/> <path id="primary" d="M13.78,10A5.08,5.08,0,0,0,14,8.5,5.5,5.5,0,0,0,8.5,3a5.34,5.34,0,0,0-1.45.2A3,3,0,1,1,3.2,7.05,5.34,5.34,0,0,0,3,8.5a5.51,5.51,0,0,0,4.369,5.39" fill="none" stroke="#000000" stroke-linecap="round" stroke-linejoin="round" stroke-width="1.00015"/> <path id="primary-2" data-name="primary" d="M17.67,11.8a2.76,2.76,0,0,0-.77.11A4.1,4.1,0,0,0,13.5,10a4.27,4.27,0,0,0-4.1,3.79,2.27,2.27,0,0,0-.9-.19A2.61,2.61,0,0,0,6,16.3,2.61,2.61,0,0,0,8.5,19h9.17A3.47,3.47,0,0,0,21,15.4a3.47,3.47,0,0,0-3.33-3.6Z" fill="none" stroke="#000000" stroke-linecap="round" stroke-linejoin="round" stroke-width="1.00015"/> </g> </g>
</svg>