<!DOCTYPE svg PUBLIC "-//W3C//DTD SVG 1.1//EN" "http://www.w3.org/Graphics/SVG/1.1/DTD/svg11.dtd">
<!-- Uploaded to: SVG Repo, www.svgrepo.com, Transformed by: SVG Repo Mixer Tools -->
<svg width="800px" height="800px" viewBox="0 -0.25 20.574 20.574" xmlns="http://www.w3.org/2000/svg" fill="#000000">
<g id="SVGRepo_bgCarrier" stroke-width="0"/>
<g id="SVGRepo_tracerCarrier" stroke-linecap="round" stroke-linejoin="round"/>
<g id="SVGRepo_iconCarrier"> <g id="rainy" transform="translate(-1.644 -1.934)"> <path id="secondary" fill="#fcfcfc" d="M21,11.5A3.5,3.5,0,0,1,17.5,15H7a4,4,0,0,1-.68-7.93,6,6,0,0,1,11.6,1A3.49,3.49,0,0,1,21,11.5Z"/> <path id="primary" d="M6,19v1m4-1v2m4-2v1m4-1v2M17.92,8A6,6,0,0,0,6.32,7,4.014,4.014,0,1,0,7,15H17.5a3.506,3.506,0,1,0,.42-7Z" fill="none" stroke="#000000" stroke-linecap="round" stroke-linejoin="round" stroke-width="1.0287000000000002"/> </g> </g>
</svg>