<!DOCTYPE svg PUBLIC "-//W3C//DTD SVG 1.1//EN" "http://www.w3.org/Graphics/SVG/1.1/DTD/svg11.dtd">
<!-- Uploaded to: SVG Repo, www.svgrepo.com, Transformed by: SVG Repo Mixer Tools -->
<svg width="800px" height="800px" viewBox="0 -0.85 20.047 20.047" xmlns="http://www.w3.org/2000/svg" fill="#000000">
<g id="SVGRepo_bgCarrier" stroke-width="0"/>
<g id="SVGRepo_tracerCarrier" stroke-linecap="round" stroke-linejoin="round"/>
<g id="SVGRepo_iconCarrier"> <g id="clouds-strom" transform="translate(-1.949 -2.99)"> <path id="secondary" fill="#ffffff" d="M16,10h-.1A5,5,0,0,0,6.42,9a3.5,3.5,0,1,0,.08,7H16a3,3,0,0,0,0-6Z"/> <path id="primary" d="M18.78,11.89A3,3,0,0,0,18,6a3.17,3.17,0,0,0-.53,0,4,4,0,0,0-6.94,0" fill="none" stroke="#000000" stroke-linecap="round" stroke-linejoin="round" stroke-width="1.00235"/> <path id="primary-2" data-name="primary" d="M11,20l2-4H9l2-4" fill="none" stroke="#000000" stroke-linecap="round" stroke-linejoin="round" stroke-width="1.00235"/> <path id="primary-3" data-name="primary" d="M17,15.82A3,3,0,0,0,16,10h-.1A5,5,0,0,0,6.42,9,3.49,3.49,0,0,0,5,15.65" fill="none" stroke="#000000" stroke-linecap="round" stroke-linejoin="round" stroke-width="1.00235"/> </g> </g>
</svg>