<!DOCTYPE svg PUBLIC "-//W3C//DTD SVG 1.1//EN" "http://www.w3.org/Graphics/SVG/1.1/DTD/svg11.dtd">
<!-- Uploaded to: SVG Repo, www.svgrepo.com, Transformed by: SVG Repo Mixer Tools -->
<svg fill="#000000" height="800px" width="800px" version="1.1" id="Capa_1" xmlns="http://www.w3.org/2000/svg" xmlns:xlink="http://www.w3.org/1999/xlink" viewBox="0 0 437.871 437.871" xml:space="preserve" stroke="#000000" stroke-width="3.502968">
<g id="SVGRepo_bgCarrier" stroke-width="0"/>
<g id="SVGRepo_tracerCarrier" stroke-linecap="round" stroke-linejoin="round"/>
<g id="SVGRepo_iconCarrier"> <g> <path d="M392.183,149.158c-2.28-49.583-43.333-89.216-93.468-89.216c-19.641,0-38.76,6.208-54.612,17.614 c-14.121-33.14-46.645-54.913-83.188-54.913c-49.88,0-90.46,40.58-90.46,90.46c0,2.432,0.103,4.887,0.306,7.35 c-2.407-0.277-4.825-0.417-7.239-0.417C28.496,120.035,0,148.531,0,183.556s28.496,63.521,63.521,63.521h325.333 c27.028,0,49.017-21.988,49.017-49.016C437.871,172.153,417.664,150.875,392.183,149.158z M388.854,236.077H63.521 c-28.96,0-52.521-23.561-52.521-52.521s23.561-52.521,52.521-52.521c4.126,0,8.273,0.494,12.326,1.469 c1.792,0.431,3.684-0.065,5.035-1.323c1.35-1.258,1.979-3.108,1.676-4.929c-0.732-4.395-1.104-8.819-1.104-13.15 c0-43.814,35.646-79.46,79.46-79.46c34.378,0,64.705,21.934,75.464,54.579c0.573,1.74,1.976,3.081,3.74,3.575 c1.763,0.493,3.657,0.078,5.053-1.112c14.923-12.731,33.938-19.742,53.544-19.742c45.528,0,82.567,37.04,82.567,82.568 c0,0.141-0.006,0.28-0.011,0.419c-0.007,0.198-0.014,0.396-0.017,0.596c-0.02,1.517,0.587,2.975,1.678,4.029 c1.091,1.054,2.568,1.613,4.084,1.539c0.609-0.029,1.222-0.046,1.838-0.046c20.963,0,38.017,17.054,38.017,38.016 S409.817,236.077,388.854,236.077z"/> <path d="M71.069,165.201c-3.038,0-5.5,2.462-5.5,5.5c0,3.059-2.489,5.548-5.547,5.548c-3.059,0-5.548-2.489-5.548-5.548 c0-3.038-2.462-5.5-5.5-5.5s-5.5,2.462-5.5,5.5c0,9.125,7.423,16.548,16.548,16.548c9.124,0,16.547-7.423,16.547-16.548 C76.569,167.663,74.106,165.201,71.069,165.201z"/> <path d="M168.069,165.201c-3.038,0-5.5,2.462-5.5,5.5c0,3.059-2.489,5.548-5.547,5.548c-3.059,0-5.548-2.489-5.548-5.548 c0-3.038-2.462-5.5-5.5-5.5s-5.5,2.462-5.5,5.5c0,9.125,7.423,16.548,16.548,16.548c9.124,0,16.547-7.423,16.547-16.548 C173.569,167.663,171.106,165.201,168.069,165.201z"/> <path d="M125.425,190.295c-4.552,4.553-10.605,7.06-17.043,7.06c-6.438,0-12.491-2.507-17.043-7.06 c-2.148-2.147-5.629-2.148-7.778,0c-2.148,2.148-2.148,5.63,0,7.778c6.63,6.63,15.445,10.282,24.821,10.282 c9.376,0,18.192-3.651,24.822-10.282c2.148-2.148,2.148-5.63,0-7.778C131.055,188.147,127.573,188.147,125.425,190.295z"/> <path d="M374.615,290.077c-1.519-2.632-4.884-3.532-7.513-2.013l-13.833,7.987v-15.973c0-3.038-2.463-5.5-5.5-5.5 s-5.5,2.462-5.5,5.5v15.974l-13.834-7.987c-2.631-1.519-5.994-0.618-7.513,2.013c-1.52,2.63-0.618,5.994,2.013,7.513l13.833,7.987 l-13.833,7.987c-2.631,1.519-3.532,4.883-2.013,7.513c1.019,1.765,2.867,2.751,4.768,2.751c0.934,0,1.879-0.238,2.745-0.738 l13.834-7.987v15.974c0,3.038,2.463,5.5,5.5,5.5s5.5-2.462,5.5-5.5v-15.973l13.833,7.987c0.866,0.5,1.812,0.738,2.745,0.738 c1.9,0,3.749-0.987,4.768-2.751c1.52-2.63,0.618-5.994-2.013-7.513l-13.833-7.987l13.833-7.987 C375.233,296.071,376.135,292.708,374.615,290.077z"/> <path d="M238.615,290.077c-1.52-2.632-4.884-3.532-7.513-2.013l-13.833,7.987v-15.974c0-3.038-2.462-5.5-5.5-5.5 s-5.5,2.462-5.5,5.5v15.974l-13.833-7.987c-2.629-1.517-5.994-0.617-7.513,2.013c-1.519,2.63-0.618,5.994,2.013,7.513l13.833,7.987 l-13.833,7.987c-2.631,1.519-3.532,4.883-2.013,7.513c1.019,1.765,2.867,2.751,4.769,2.751c0.933,0,1.878-0.238,2.745-0.738 l13.833-7.987v15.974c0,3.038,2.462,5.5,5.5,5.5s5.5-2.462,5.5-5.5v-15.974l13.833,7.987c0.866,0.5,1.812,0.738,2.745,0.738 c1.9,0,3.749-0.987,4.768-2.751c1.52-2.63,0.618-5.994-2.013-7.513l-13.833-7.987l13.833-7.987 C239.233,296.071,240.135,292.708,238.615,290.077z"/> <path d="M306.615,368.729c-1.52-2.632-4.884-3.532-7.513-2.013l-13.833,7.987v-15.973c0-3.038-2.463-5.5-5.5-5.5 s-5.5,2.462-5.5,5.5v15.974l-13.834-7.987c-2.63-1.519-5.993-0.618-7.513,2.013c-1.52,2.63-0.618,5.994,2.013,7.513l13.833,7.987 l-13.833,7.987c-2.631,1.519-3.532,4.883-2.013,7.513c1.019,1.765,2.867,2.751,4.768,2.751c0.934,0,1.879-0.238,2.745-0.738 l13.834-7.987v15.974c0,3.038,2.463,5.5,5.5,5.5s5.5-2.462,5.5-5.5v-15.973l13.833,7.987c0.866,0.5,1.812,0.738,2.745,0.738 c1.9,0,3.749-0.987,4.768-2.751c1.52-2.63,0.618-5.994-2.013-7.513l-13.833-7.987l13.833-7.987 C307.233,374.723,308.135,371.359,306.615,368.729z"/> <path d="M170.616,368.729c-1.519-2.63-4.881-3.533-7.513-2.013l-13.834,7.987v-15.974c0-3.038-2.462-5.5-5.5-5.5 s-5.5,2.462-5.5,5.5v15.974l-13.833-7.987c-2.63-1.518-5.995-0.617-7.513,2.013c-1.519,2.631-0.617,5.994,2.013,7.513l13.834,7.987 l-13.834,7.987c-2.63,1.519-3.532,4.882-2.013,7.513c1.019,1.765,2.867,2.751,4.769,2.751c0.933,0,1.878-0.238,2.745-0.738 l13.833-7.987v15.974c0,3.038,2.462,5.5,5.5,5.5s5.5-2.462,5.5-5.5v-15.974l13.834,7.987c0.866,0.5,1.812,0.738,2.745,0.738 c1.901,0,3.75-0.987,4.769-2.751c1.519-2.631,0.617-5.994-2.013-7.513l-13.834-7.987l13.834-7.987 C171.233,374.723,172.135,371.36,170.616,368.729z"/> <path d="M102.616,290.077c-1.519-2.63-4.88-3.533-7.513-2.013l-13.834,7.987v-15.974c0-3.038-2.462-5.5-5.5-5.5s-5.5,2.462-5.5,5.5 v15.974l-13.833-7.987c-2.63-1.517-5.994-0.617-7.513,2.013c-1.519,2.631-0.617,5.994,2.013,7.513l13.834,7.987l-13.834,7.987 c-2.63,1.519-3.532,4.882-2.013,7.513c1.019,1.765,2.867,2.751,4.769,2.751c0.933,0,1.878-0.238,2.745-0.738l13.833-7.987v15.974 c0,3.038,2.462,5.5,5.5,5.5s5.5-2.462,5.5-5.5v-15.974l13.834,7.987c0.866,0.5,1.812,0.738,2.745,0.738 c1.901,0,3.75-0.987,4.769-2.751c1.519-2.631,0.617-5.994-2.013-7.513l-13.834-7.987l13.834-7.987 C103.233,296.071,104.135,292.708,102.616,290.077z"/> </g> </g>
</svg>